<?xml version="1.0" encoding="UTF-8" standalone="no"?>
<!DOCTYPE svg PUBLIC "-//W3C//DTD SVG 1.1//EN" "http://www.w3.org/Graphics/SVG/1.1/DTD/svg11.dtd">
<svg width="100%" height="100%" viewBox="0 0 25 21" version="1.1" xmlns="http://www.w3.org/2000/svg" xmlns:xlink="http://www.w3.org/1999/xlink" xml:space="preserve" xmlns:serif="http://www.serif.com/" style="fill-rule:evenodd;clip-rule:evenodd;stroke-linejoin:round;stroke-miterlimit:2;">
    <g transform="matrix(1,0,0,1,0,-39.6231)">
        <g id="white-stencil" transform="matrix(0.684431,0,0,0.577981,-4916.56,-4112.01)">
            <rect x="7183.43" y="7183" width="35.567" height="36" style="fill:none;"/>
            <g transform="matrix(1.13032,0,0,1.32235,-938.291,-2320.55)">
                <g transform="matrix(1.11113,0,0,1.12469,7198.48,7189.63)">
                    <path d="M0,20.234C-5.588,20.234 -9.538,15.707 -9.538,10.117C-9.538,7.021 -8.091,4.925 -7.417,4.11C-7.238,3.893 -6.169,2.781 -5.538,2.36C-4.948,1.966 -4.001,1.519 -3.665,1.387C-3.252,1.227 -2.39,1.085 -1.788,1.11C-0.745,1.152 -0.697,1.181 -0.538,1.204C-0.23,1.25 -0.042,1.802 0.087,1.86C0.271,1.942 1.933,2.239 2.043,2.239C2.241,2.239 4.248,1.989 4.351,1.946C4.426,1.914 4.646,1.759 4.712,1.582C4.761,1.452 4.91,0.706 4.892,0.617C4.861,0.462 4.637,0.248 4.462,0.11C4.205,-0.094 2.855,-1.092 2.661,-1.135C2.47,-1.177 0.628,-1.483 0.4,-1.406C0.26,-1.359 0.002,-0.944 -0.32,-0.939C-0.518,-0.937 -1.058,-0.913 -1.288,-0.906C-1.717,-0.894 -2.51,-0.818 -2.848,-0.745C-3.104,-0.689 -3.406,-0.63 -3.682,-0.56C-4.049,-0.467 -4.369,-0.365 -4.475,-0.328C-4.566,-0.297 -4.968,-0.138 -5.35,0.031C-5.637,0.158 -5.912,0.295 -6.038,0.36C-6.457,0.574 -7.086,0.998 -7.413,1.235C-8.746,2.201 -9.63,3.409 -10.228,4.36C-11.133,5.798 -11.772,7.735 -11.784,10.117C-11.815,16.049 -6.719,20.863 -0.785,20.863C2.818,20.863 6.006,19.086 7.955,16.366C6.102,18.722 3.229,20.234 0,20.234" style="fill:white;fill-rule:nonzero;"/>
                </g>
                <g transform="matrix(1.11113,0,0,1.12469,7117.73,7119.73)">
                    <path d="M77.581,63.102C77.702,63.164 77.988,63.31 78.176,63.44C78.318,63.54 78.761,63.834 78.761,63.834L79.071,64.065L79.592,63.971L79.643,64.258L79.207,64.349L79.279,64.785L78.989,64.839L78.886,64.315L78.573,64.107C78.573,64.107 78.185,63.834 78.011,63.728C77.843,63.626 77.596,63.481 77.542,63.454C77.493,63.431 77.386,63.409 77.386,63.409L77.448,63.065C77.448,63.065 77.54,63.081 77.581,63.102Z" style="fill:white;"/>
                </g>
                <g transform="matrix(1.11113,0,0,1.12469,7210.69,7200.47)">
                    <path d="M0,1.806C0.08,1.982 0.156,2.161 0.229,2.345C0.301,2.158 0.377,1.974 0.459,1.796C0.539,1.618 0.623,1.447 0.709,1.279L3.105,-3.443C3.148,-3.524 3.193,-3.588 3.238,-3.632C3.283,-3.677 3.332,-3.711 3.389,-3.732C3.443,-3.754 3.508,-3.764 3.578,-3.764L5.479,-3.764L5.479,5.57L3.568,5.57L3.568,0.197C3.568,-0.063 3.58,-0.345 3.605,-0.648L1.133,4.154C1.055,4.302 0.951,4.415 0.822,4.494C0.691,4.57 0.541,4.609 0.375,4.609L0.08,4.609C-0.086,4.609 -0.234,4.57 -0.365,4.494C-0.496,4.415 -0.6,4.302 -0.676,4.154L-3.164,-0.655C-3.146,-0.506 -3.133,-0.357 -3.125,-0.21C-3.117,-0.062 -3.111,0.074 -3.111,0.197L-3.111,5.57L-5.023,5.57L-5.023,-3.764L-3.121,-3.764C-3.051,-3.764 -2.988,-3.754 -2.934,-3.732C-2.877,-3.711 -2.826,-3.677 -2.781,-3.632C-2.736,-3.588 -2.693,-3.524 -2.65,-3.443L-0.246,1.298C-0.162,1.462 -0.08,1.63 0,1.806" style="fill:white;fill-rule:nonzero;"/>
                </g>
                <g transform="matrix(1.11113,0,0,1.12469,7206.94,7195.63)">
                    <path d="M0,10.408L-6.699,10.408L-6.699,0L-3.463,0L-3.463,7.611L0,7.611L0,10.408Z" style="fill:rgb(0,156,204);fill-rule:nonzero;"/>
                </g>
                <g transform="matrix(1.11113,0,0,1.12469,7202.49,7198.18)">
                    <path d="M0,5.88L3.463,5.88L3.463,7.61L-2.166,7.61L-2.166,-1.73L0,-1.73L0,5.88Z" style="fill:white;fill-rule:nonzero;"/>
                </g>
                <g transform="matrix(1.11113,0,0,1.12469,7196.35,7195.51)">
                    <path d="M0,10.612C-0.754,10.612 -1.463,10.479 -2.105,10.212C-2.754,9.944 -3.318,9.565 -3.785,9.092C-4.258,8.624 -4.633,8.057 -4.902,7.409C-5.17,6.764 -5.305,6.053 -5.305,5.303C-5.305,4.546 -5.176,3.834 -4.92,3.187C-4.668,2.542 -4.295,1.972 -3.811,1.495C-3.326,1.017 -2.74,0.646 -2.068,0.389C-1.398,0.132 -0.646,0 0.166,0C0.582,0 0.982,0.035 1.359,0.105C1.732,0.175 2.082,0.272 2.4,0.398C2.721,0.518 3.02,0.668 3.287,0.841C3.557,1.015 3.803,1.207 4.01,1.407L4.33,1.715L4.086,2.087L3.457,3.04C3.355,3.192 3.23,3.317 3.082,3.41C2.908,3.517 2.719,3.57 2.525,3.57C2.297,3.57 2.064,3.5 1.844,3.359C1.695,3.273 1.549,3.189 1.408,3.119C1.283,3.057 1.158,3.008 1.029,2.97C0.898,2.932 0.762,2.904 0.619,2.886C0.457,2.866 0.283,2.858 0.09,2.858C-0.246,2.858 -0.535,2.913 -0.791,3.027C-1.049,3.141 -1.262,3.293 -1.436,3.496C-1.621,3.706 -1.76,3.955 -1.861,4.254C-1.967,4.561 -2.02,4.917 -2.02,5.303C-2.02,5.737 -1.961,6.122 -1.846,6.448C-1.732,6.764 -1.574,7.032 -1.387,7.239C-1.201,7.444 -0.977,7.6 -0.715,7.712C-0.449,7.823 -0.162,7.878 0.166,7.878C0.432,7.878 0.654,7.858 0.84,7.815C0.922,7.796 1.004,7.776 1.08,7.753L1.08,7.249L0.691,7.249C0.346,7.249 0.129,7.112 0.004,6.995C-0.182,6.819 -0.279,6.589 -0.279,6.329L-0.279,4.604L4.109,4.604L4.109,9.354L3.891,9.514C3.617,9.71 3.338,9.878 3.061,10.014C2.785,10.151 2.475,10.264 2.145,10.358C1.826,10.446 1.482,10.51 1.125,10.551C0.779,10.592 0.4,10.612 0,10.612" style="fill:rgb(0,156,204);fill-rule:nonzero;"/>
                </g>
                <g transform="matrix(1.11113,0,0,1.12469,7196.54,7197.99)">
                    <path d="M0,6.21C0.297,6.21 0.563,6.187 0.795,6.134C1.025,6.081 1.242,6.015 1.447,5.929L1.447,4.511L0.525,4.511C0.387,4.511 0.281,4.476 0.203,4.403C0.127,4.331 0.09,4.237 0.09,4.128L0.09,2.935L3.41,2.935L3.41,6.878C3.17,7.054 2.922,7.202 2.664,7.329C2.404,7.456 2.129,7.558 1.836,7.64C1.543,7.722 1.23,7.78 0.9,7.819C0.568,7.858 0.213,7.878 -0.168,7.878C-0.852,7.878 -1.484,7.757 -2.064,7.515C-2.646,7.274 -3.15,6.94 -3.574,6.515C-4,6.089 -4.334,5.585 -4.574,5.003C-4.816,4.417 -4.938,3.786 -4.938,3.101C-4.938,2.405 -4.82,1.765 -4.59,1.182C-4.359,0.599 -4.031,0.095 -3.6,-0.328C-3.17,-0.751 -2.652,-1.08 -2.043,-1.315C-1.434,-1.551 -0.752,-1.668 0,-1.668C0.387,-1.668 0.754,-1.637 1.096,-1.572C1.438,-1.508 1.752,-1.42 2.041,-1.31C2.33,-1.198 2.594,-1.065 2.832,-0.912C3.072,-0.758 3.287,-0.592 3.475,-0.412L2.846,0.543C2.785,0.633 2.715,0.703 2.631,0.755C2.547,0.807 2.457,0.832 2.359,0.832C2.23,0.832 2.098,0.789 1.961,0.703C1.789,0.602 1.629,0.513 1.477,0.438C1.326,0.362 1.17,0.302 1.012,0.255C0.854,0.208 0.688,0.174 0.512,0.152C0.336,0.131 0.141,0.12 -0.078,0.12C-0.484,0.12 -0.85,0.191 -1.174,0.335C-1.498,0.479 -1.775,0.68 -2.004,0.94C-2.232,1.202 -2.408,1.515 -2.533,1.88C-2.656,2.245 -2.719,2.651 -2.719,3.101C-2.719,3.597 -2.65,4.038 -2.514,4.421C-2.377,4.808 -2.188,5.132 -1.947,5.397C-1.705,5.663 -1.418,5.862 -1.088,6.003C-0.756,6.142 -0.395,6.21 0,6.21" style="fill:white;fill-rule:nonzero;"/>
                </g>
                <g transform="matrix(1.16481,0.729891,-0.723329,1.1827,7160.91,7059.33)">
                    <circle cx="74.603" cy="64.007" r="0.308" style="fill:rgb(0,156,204);"/>
                </g>
                <g transform="matrix(1.16481,0.729891,-0.723329,1.1827,7160.6,7061)">
                    <circle cx="74.603" cy="64.007" r="0.308" style="fill:rgb(0,156,204);"/>
                </g>
            </g>
        </g>
    </g>
</svg>
